<?xml version="1.0" encoding="UTF-8"?>
<svg xmlns="http://www.w3.org/2000/svg" width="1326" height="140" viewBox="0 0 1326 140" fill="none">
  <g clip-path="url(#clip0_29_736)">
    <path d="M115.228 0.0136719C137.529 0.581528 155.432 18.9209 155.432 41.4615C155.432 64.0022 137.529 82.3415 115.228 82.9094L114.162 82.9231H0V56.9697H25.7268V57.0769H114.162C122.747 57.0769 129.706 50.0856 129.706 41.4615C129.706 32.8374 122.747 25.8462 114.162 25.8462H25.7268V25.7389H0V0H114.162L115.228 0.0136719Z" fill="#DF3B3B"></path>
    <path d="M0 82.9231H25.7268V140H23.5829C10.5584 140 0 129.392 0 116.308V82.9231Z" fill="#DF3B3B"></path>
    <path d="M313.539 0.0136719C335.839 0.581528 353.743 18.9209 353.743 41.4615C353.743 64.0022 335.839 82.3415 313.539 82.9094L312.473 82.9231H198.311V57.0769H312.473C321.057 57.0769 328.016 50.0856 328.016 41.4615C328.016 32.8374 321.057 25.8462 312.473 25.8462H198.311V0H312.473L313.539 0.0136719Z" fill="#DF3B3B"></path>
    <path d="M274.86 82.8723L307.561 82.9147L351.109 140.004L318.132 139.329L274.86 82.8723Z" fill="#DF3B3B"></path>
    <path d="M198.311 82.9231H224.037V140H221.893C208.869 140 198.311 129.392 198.311 116.308V82.9231Z" fill="#DF3B3B"></path>
    <path d="M552.054 25.8462H422.348V92.6154C422.348 104.511 431.946 114.154 443.787 114.154H552.054V140H443.787L442.569 139.984C417.488 139.346 397.272 119.037 396.637 93.8384L396.621 92.6154V0H552.054V25.8462ZM552.054 82.9231H526.327V57.0769H552.054V82.9231Z" fill="#DF3B3B"></path>
    <path d="M552.054 57.0769H453.435V82.9231H552.054V57.0769Z" fill="#DF3B3B"></path>
    <path d="M677.472 82.9231H636.202C613.409 82.9231 594.932 64.3602 594.932 41.4615C594.932 18.5629 613.409 0 636.202 0H677.472V82.9231ZM651.763 57.097L677.471 57.0895L677.463 25.8514L651.745 25.8462L651.763 57.097ZM636.202 25.8462C627.617 25.8462 620.658 32.8374 620.658 41.4615C620.658 50.0856 627.617 57.0769 636.202 57.0769H651.745V25.8462H636.202Z" fill="#DF3B3B"></path>
    <path d="M667.824 82.9273L693.551 82.9231H709.094C717.678 82.9231 724.637 89.9143 724.637 98.5384C724.637 107.163 717.678 114.154 709.094 114.154H693.551L667.824 114.145V140H709.094C731.887 140 750.364 121.437 750.364 98.5384C750.364 75.6398 731.887 57.0769 709.094 57.0769H667.824V82.9273Z" fill="#DF3B3B"></path>
    <path d="M750.364 0H653.889V25.8462H750.364V0Z" fill="#DF3B3B"></path>
    <path d="M689.263 114.154H594.932V140H689.263V114.154Z" fill="#DF3B3B"></path>
    <path d="M818.969 0H793.242V140H818.969V0Z" fill="#DF3B3B"></path>
    <path d="M953.465 175.627L953.349 175.538H953.541L953.465 175.627ZM984.048 140.185V140H984.208L984.048 140.185ZM949.746 0.000213623V0.115898L949.713 0.0759348L858.197 69.8561L949.451 140H907.115L840.331 88.6665C827.964 79.1604 828 60.4351 840.403 50.9773L907.258 0.000213623H949.746Z" fill="#DF3B3B"></path>
    <path d="M1080.67 0.0157752C1106.15 0.664521 1126.62 21.6238 1126.62 47.3846V92.6154L1126.61 93.8384C1125.96 119.037 1105.75 139.346 1080.67 139.984L1079.45 140H1018.35L1017.13 139.984C992.052 139.346 971.836 119.037 971.202 93.8384L971.186 92.6154V47.3846C971.186 21.6238 991.648 0.664523 1017.13 0.0157752L1018.35 0H1079.45L1080.67 0.0157752ZM1018.35 25.8462C1006.51 25.8462 996.912 35.4892 996.912 47.3846V114.154H1079.45C1091.3 114.154 1100.89 104.511 1100.89 92.6154V47.3846C1100.89 35.4892 1091.3 25.8462 1079.45 25.8462H1018.35Z" fill="#DF3B3B"></path>
    <path d="M1195.22 0H1169.5V140H1195.22V0Z" fill="#DF3B3B"></path>
    <path d="M1329.72 175.627L1329.6 175.538H1329.79L1329.72 175.627ZM1360.3 140.185V140H1360.46L1360.3 140.185ZM1326 0.000213623V0.115898L1325.97 0.0759348L1234.46 69.8561L1325.7 140H1283.37L1216.59 88.6665C1204.22 79.1604 1204.26 60.4351 1216.66 50.9773L1283.51 0.000213623H1326Z" fill="#DF3B3B"></path>
  </g>
  <defs>
    <clipPath id="clip0_29_736">
      <rect width="1326" height="140" fill="white"></rect>
    </clipPath>
  </defs>
</svg>
